<svg xmlns="http://www.w3.org/2000/svg" xmlns:xlink="http://www.w3.org/1999/xlink" width="145" height="31.997" viewBox="0 0 145 31.997">
  <defs>
    <radialGradient id="radial-gradient" cx="0.5" cy="0.5" r="0.5" gradientUnits="objectBoundingBox">
      <stop offset="0" stop-color="#002c5f"/>
      <stop offset="1" stop-color="#002c5f" stop-opacity="0"/>
    </radialGradient>
  </defs>
  <g id="logo" transform="translate(-198.645 -616.101)">
    <circle id="타원_9" data-name="타원 9" cx="10.73" cy="10.73" r="10.73" transform="translate(260.386 626.638)" opacity="0.7" fill="url(#radial-gradient)"/>
    <g id="그룹_4" data-name="그룹 4" transform="translate(198.645 628.997)">
      <path id="패스_12" data-name="패스 12" d="M198.645,675.081a8.349,8.349,0,0,1,15.324-4.529l-2.682,2.031a4.8,4.8,0,0,0-4.409-2.428c-2.776,0-4.478,2.124-4.478,4.926s1.7,4.925,4.478,4.925a4.8,4.8,0,0,0,4.409-2.428l2.682,2.031a8.349,8.349,0,0,1-15.324-4.528Z" transform="translate(-198.645 -666.794)" fill="#002c5f"/>
      <path id="패스_13" data-name="패스 13" d="M315.455,667.928h3.638v6.279h7v-6.279h3.638V683.8h-3.638v-6.443h-7V683.8h-3.638Z" transform="translate(-279.398 -667.578)" fill="#002c5f"/>
      <path id="패스_14" data-name="패스 14" d="M514.556,677.639h-1.89V683.8h-3.638V667.928h7.348c3.056,0,5.294,1.867,5.294,4.855a4.587,4.587,0,0,1-3.242,4.552l4.852,6.4v.07h-4.315Zm1.422-3.151c1.283,0,1.936-.654,1.936-1.7s-.653-1.7-1.936-1.7h-3.312v3.408Z" transform="translate(-413.217 -667.578)" fill="#002c5f"/>
      <path id="패스_15" data-name="패스 15" d="M620.852,667.928h6.671c4.688,0,8,2.8,8,7.937s-3.312,7.937-8,7.937h-6.671Zm3.638,3.174v9.524h2.869c2.729,0,4.408-1.68,4.408-4.762s-1.68-4.762-4.408-4.762Z" transform="translate(-490.523 -667.578)" fill="#002c5f"/>
    </g>
    <g id="그룹_5" data-name="그룹 5" transform="translate(247.888 616.101)">
      <path id="패스_16" data-name="패스 16" d="M358.171,612.528H359.4v2.644h3.179v-2.644H363.8v6.421h-1.226v-2.71H359.4v2.71h-1.227Z" transform="translate(-358.171 -612.396)" fill="#002c5f"/>
      <path id="패스_17" data-name="패스 17" d="M382.469,612.528h1.642l1.906,4.844,1.915-4.844h1.642v6.421h-1.226v-4.542l-1.774,4.542h-1.1l-1.773-4.542v4.542h-1.226Z" transform="translate(-374.969 -612.396)" fill="#002c5f"/>
      <path id="패스_18" data-name="패스 18" d="M410.342,615.444a3.343,3.343,0,0,1,6.151-1.813l-.915.689a2.106,2.106,0,0,0-1.925-1.076,2.205,2.205,0,0,0,.01,4.4,2.839,2.839,0,0,0,1.585-.434v-1.1H413.8v-1.067h2.67v2.795a4.908,4.908,0,0,1-2.84.944A3.222,3.222,0,0,1,410.342,615.444Z" transform="translate(-394.238 -612.101)" fill="#002c5f"/>
      <path id="패스_19" data-name="패스 19" d="M435.465,612.528h1.226v6.421h-1.226Z" transform="translate(-411.605 -612.396)" fill="#002c5f"/>
      <path id="패스_20" data-name="패스 20" d="M444.3,615.444a3.318,3.318,0,0,1,6.142-1.766l-.915.68a2.1,2.1,0,0,0-1.934-1.114,2.207,2.207,0,0,0,0,4.4,2.1,2.1,0,0,0,1.934-1.114l.915.68a3.318,3.318,0,0,1-6.142-1.766Z" transform="translate(-417.712 -612.101)" fill="#002c5f"/>
      <path id="패스_21" data-name="패스 21" d="M466.762,617.332l.8-.784a2.277,2.277,0,0,0,1.963,1.133c.792,0,1.208-.4,1.208-.9,0-.406-.283-.717-1.038-.831l-.557-.085c-1.132-.17-1.9-.821-1.9-1.813a2.067,2.067,0,0,1,2.321-1.954,2.82,2.82,0,0,1,2.264,1.039l-.783.812a1.915,1.915,0,0,0-1.51-.746c-.641,0-1.019.339-1.019.727s.283.652.84.736l.547.085c1.321.2,2.095.86,2.095,1.945a2.2,2.2,0,0,1-2.491,2.087A3.1,3.1,0,0,1,466.762,617.332Z" transform="translate(-433.242 -612.101)" fill="#002c5f"/>
      <path id="패스_22" data-name="패스 22" d="M496.622,612.528h1.642l1.906,4.844,1.915-4.844h1.642v6.421H502.5v-4.542l-1.774,4.542h-1.1l-1.773-4.542v4.542h-1.227Z" transform="translate(-453.884 -612.396)" fill="#002c5f"/>
    </g>
    <ellipse id="타원_2" data-name="타원 2" cx="4.836" cy="4.84" rx="4.836" ry="4.84" transform="translate(266.331 632.588)" fill="#002c5f"/>
  </g>
</svg>
