<svg xmlns="http://www.w3.org/2000/svg" width="97.082" height="28.433" viewBox="0 0 97.082 28.433"><defs><style>.a{fill:#fff;stroke:rgba(0,0,0,0);stroke-miterlimit:10;}</style></defs><path class="a" d="M-42.365,676.243c0-1.943.621-5.089,2.117-6.638,1.376-1.426,2.6-1.7,4.711-1.7,2.407,0,3.744,1.095,3.581,3.469a18.493,18.493,0,0,1-.576,3.038h-5.71s-.032.231-.189,1.11-.236,1.943.6,1.943c1.18,0,1.369-1.928,1.369-1.928h3.618c-.661,2.529-2.108,4.179-5.569,4.179C-41.782,679.713-42.365,678.217-42.365,676.243Zm4.641-3.855h1.841a8.906,8.906,0,0,0,.346-1.526c0-.4-.22-.664-.74-.664S-37.346,670.368-37.724,672.388Zm-35.531,3.542c.593-6.25,2.811-7.967,6.722-7.967,3.429,0,3.969,1.835,3.843,3.423-.477,5.969-2.448,8.316-6.464,8.316C-71.619,679.7-73.55,679.045-73.255,675.93Zm4.09-1.059c-.346,1.85-.012,2.272.451,2.272.756,0,1.143-.494,1.908-4.164.335-1.606.237-2.539-.409-2.539C-67.987,670.441-68.508,671.357-69.165,674.871Zm-8.7,4.781c-2.31,0-2.5-.9-2.29-1.865l1.524-7.077h-1.294l.538-2.5H-78.1l.713-3.309h3.941l-.713,3.309h1.494l-.538,2.5h-1.493l-1.225,5.69a.425.425,0,0,0,.422.51h.947l-.545,2.535a17.534,17.534,0,0,1-2.683.206Zm-12.413,0a1.968,1.968,0,0,1-1.954-2.358l1.939-9.084h3.964l-1.642,7.692a.722.722,0,0,0,.717.865,1.033,1.033,0,0,0,1.014-.8l1.7-7.755h3.964l-2.443,11.112h-3.8l.325-1.254-.723.607a4.11,4.11,0,0,1-1.951.92,4.217,4.217,0,0,1-.69.057Zm58.065-.293,2.407-11.148h3.979l-.4,1.851c1.1-2.028,2.563-2.126,2.929-2.126a2.02,2.02,0,0,1,.618.073l-.787,3.6a3.291,3.291,0,0,0-1.07-.169,2.385,2.385,0,0,0-1.507.451,2.32,2.32,0,0,0-.879,1.391l-1.312,6.076Zm-18.83,0-.22-11.149h4.184l-.81,8.268,2.855-8.268h4.1l-5.207,11.149Zm-11.886,0,3.059-14.244h8.494L-52,667.963h-4.846l-.564,2.61h4.579l-.616,2.849h-4.58l-.622,2.882h5.011l-.615,3.055Zm-34.595-.036.161-2.6h-3.183l-.957,2.6h-4.132l1.359-2.895,4.236-1.079,2.806-.716,3.5-.891.186,5.581Zm-1.294-14.515h4.782l.288,8.691-3.4-.2.43-6.965-2.652,7.205-4.76,2.589Zm34.191-4.151v-7.942H-62.7v7.942Zm-3.8,0V658.2h-3.5v2.455h-1.927v-6.316a1.6,1.6,0,0,1,.447-1.186,1.66,1.66,0,0,1,1.21-.439h5.7v7.942Zm-3.5-5.816v1.641h3.5v-2.045h-3.092A.4.4,0,0,0-71.936,654.839Zm-10.983,5.816v-7.942h5.7a1.662,1.662,0,0,1,1.209.439,1.589,1.589,0,0,1,.449,1.187v4.694a1.588,1.588,0,0,1-.448,1.186,1.659,1.659,0,0,1-1.21.437Zm1.925-1.719H-77.9a.4.4,0,0,0,.41-.411v-3.68a.4.4,0,0,0-.423-.411h-3.078Zm-5.639,1.719v-5.822a.4.4,0,0,0-.409-.4h-3.094v6.22h-1.928v-7.942h5.7a1.666,1.666,0,0,1,1.211.439,1.591,1.591,0,0,1,.445,1.186v6.316Zm-14.572,0v-7.942h1.926v6.223h3.091a.4.4,0,0,0,.409-.4v-5.823h1.928v6.319a1.592,1.592,0,0,1-.446,1.186,1.663,1.663,0,0,1-1.211.437Zm-6.031,0v-2.75l-3.33-5.192h2.276l2.016,3.145,2.018-3.145h2.275l-3.328,5.192v2.75Zm-6.02,0v-3.193h-3.5v3.193h-1.927v-7.942h1.927v3.028h3.5v-3.028h1.927v7.942Z" transform="translate(119.185 -652.213)"/></svg>