<svg xmlns="http://www.w3.org/2000/svg" xmlns:xlink="http://www.w3.org/1999/xlink" width="292" height="64.435" viewBox="0 0 292 64.435">
  <defs>
    <radialGradient id="radial-gradient" cx="0.5" cy="0.5" r="0.5" gradientUnits="objectBoundingBox">
      <stop offset="0" stop-color="#fff"/>
      <stop offset="1" stop-color="#fff" stop-opacity="0"/>
    </radialGradient>
  </defs>
  <g id="logo" transform="translate(-198.645 -616.101)">
    <circle id="타원_9" data-name="타원 9" cx="21.608" cy="21.608" r="21.608" transform="translate(322.979 637.32)" opacity="0.7" fill="url(#radial-gradient)"/>
    <g id="그룹_4" data-name="그룹 4" transform="translate(198.645 642.072)">
      <path id="패스_12" data-name="패스 12" d="M198.645,683.483c0-9.685,6.858-16.689,16.44-16.689,6.716,0,11.555,2.962,14.42,7.569l-5.4,4.089a9.674,9.674,0,0,0-8.878-4.889c-5.59,0-9.018,4.278-9.018,9.919s3.428,9.919,9.018,9.919a9.674,9.674,0,0,0,8.878-4.889l5.4,4.089c-2.865,4.608-7.7,7.569-14.42,7.569C205.5,700.17,198.645,693.166,198.645,683.483Z" transform="translate(-198.645 -666.794)" fill="#fff"/>
      <path id="패스_13" data-name="패스 13" d="M315.455,667.928h7.327v12.645h14.092V667.928H344.2v31.966h-7.327V686.92H322.782v12.974h-7.327Z" transform="translate(-242.843 -667.223)" fill="#fff"/>
      <path id="패스_14" data-name="패스 14" d="M520.161,687.483h-3.806v12.41h-7.327V667.928h14.8c6.153,0,10.662,3.76,10.662,9.778a9.237,9.237,0,0,1-6.529,9.167l9.77,12.88v.141h-8.69Zm2.864-6.346c2.583,0,3.9-1.316,3.9-3.431s-1.315-3.431-3.9-3.431h-6.67v6.863Z" transform="translate(-316.086 -667.223)" fill="#fff"/>
      <path id="패스_15" data-name="패스 15" d="M620.852,667.928h13.433c9.44,0,16.111,5.641,16.111,15.983s-6.671,15.983-16.111,15.983H620.852Zm7.327,6.393V693.5h5.778c5.495,0,8.877-3.384,8.877-9.589s-3.382-9.59-8.877-9.59Z" transform="translate(-358.397 -667.223)" fill="#fff"/>
    </g>
    <g id="그룹_5" data-name="그룹 5" transform="translate(297.81 616.101)">
      <path id="패스_16" data-name="패스 16" d="M358.171,612.528h2.47v5.324h6.4v-5.324h2.47v12.931h-2.47V620h-6.4v5.458h-2.47Z" transform="translate(-358.171 -612.263)" fill="#fff"/>
      <path id="패스_17" data-name="패스 17" d="M382.469,612.528h3.306l3.838,9.754,3.857-9.754h3.306v12.931h-2.47v-9.146l-3.572,9.146H388.51l-3.571-9.146v9.146h-2.47Z" transform="translate(-367.365 -612.263)" fill="#fff"/>
      <path id="패스_18" data-name="패스 18" d="M410.342,618.832a6.732,6.732,0,0,1,12.388-3.651l-1.843,1.388a4.241,4.241,0,0,0-3.876-2.167,4.441,4.441,0,0,0,.019,8.86,5.717,5.717,0,0,0,3.191-.874v-2.206h-2.907v-2.148h5.376v5.628a9.883,9.883,0,0,1-5.718,1.9A6.488,6.488,0,0,1,410.342,618.832Z" transform="translate(-377.911 -612.101)" fill="#fff"/>
      <path id="패스_19" data-name="패스 19" d="M435.465,612.528h2.47v12.931h-2.47Z" transform="translate(-387.417 -612.263)" fill="#fff"/>
      <path id="패스_20" data-name="패스 20" d="M444.3,618.832a6.681,6.681,0,0,1,12.368-3.555l-1.843,1.369a4.239,4.239,0,0,0-3.894-2.243c-2.508,0-4.085,1.92-4.085,4.43s1.577,4.43,4.085,4.43a4.237,4.237,0,0,0,3.894-2.243l1.843,1.369a6.681,6.681,0,0,1-12.368-3.556Z" transform="translate(-390.759 -612.101)" fill="#fff"/>
      <path id="패스_21" data-name="패스 21" d="M466.762,622.634l1.614-1.578a4.586,4.586,0,0,0,3.952,2.281c1.6,0,2.432-.8,2.432-1.806,0-.818-.57-1.444-2.09-1.674l-1.121-.171c-2.28-.342-3.819-1.654-3.819-3.651,0-2.187,1.786-3.936,4.674-3.936a5.68,5.68,0,0,1,4.56,2.092l-1.576,1.635a3.857,3.857,0,0,0-3.04-1.5c-1.292,0-2.052.683-2.052,1.464,0,.76.57,1.312,1.691,1.483l1.1.17c2.66.4,4.218,1.731,4.218,3.917,0,2.491-2.033,4.2-5.016,4.2A6.249,6.249,0,0,1,466.762,622.634Z" transform="translate(-399.259 -612.101)" fill="#fff"/>
      <path id="패스_22" data-name="패스 22" d="M496.622,612.528h3.306l3.838,9.754,3.857-9.754h3.306v12.931h-2.47v-9.146l-3.572,9.146h-2.223l-3.571-9.146v9.146h-2.47Z" transform="translate(-410.557 -612.263)" fill="#fff"/>
    </g>
    <ellipse id="타원_2" data-name="타원 2" cx="9.739" cy="9.747" rx="9.739" ry="9.747" transform="translate(334.951 649.302)" fill="#fff"/>
  </g>
</svg>
